PathFileType	4	(X/Y/Z)	Patient4_TMGait_0pt4_02_right_33.trc.trc
DataRate	CameraRate	NumFrames	NumMarkers	Units	OrigDataRate	OrigDataStartFrame	OrigNumFrames
75.675675675676	75.675675675676	6	33	mm	75.675675675676	71	       141
Frame#	Time	Sacral			L.Shoulder			Chest			R.Shoulder			Neck			R.ASIS			L.ASIS			R.Thigh.Superior			R.Thigh.Lateral			R.Thigh.Inferior			R.Patella			L.Thigh.Superior			L.Thigh.Lateral			L.Thigh.Inferior			L.Patella			L.Shank.Superior			L.Shank.Lateral			L.Shank.Inferior			R.Shank.Superior			R.Shank.Lateral			R.Shank.Inferior			R.Heel			R.Midfoot.Superior			R.Midfoot.Lateral			R.Toe			L.Heel			L.Midfoot.Lateral			L.Midfoot.Superior			L.Toe			L.Elbow			L.Wrist			R.Elbow			R.Wrist			
		X1	Y1	Z1	X2	Y2	Z2	X3	Y3	Z3	X4	Y4	Z4	X5	Y5	Z5	X6	Y6	Z6	X7	Y7	Z7	X8	Y8	Z8	X9	Y9	Z9	X10	Y10	Z10	X11	Y11	Z11	X12	Y12	Z12	X13	Y13	Z13	X14	Y14	Z14	X15	Y15	Z15	X16	Y16	Z16	X17	Y17	Z17	X18	Y18	Z18	X19	Y19	Z19	X20	Y20	Z20	X21	Y21	Z21	X22	Y22	Z22	X23	Y23	Z23	X24	Y24	Z24	X25	Y25	Z25	X26	Y26	Z26	X27	Y27	Z27	X28	Y28	Z28	X29	Y29	Z29	X30	Y30	Z30	X31	Y31	Z31	X32	Y32	Z32	X33	Y33	Z33	

71	44.435000000000	833.914661592133	1003.180769100007	523.714272905656	976.659300504863	1436.063033420305	329.999466039423	1105.378536212022	1366.538869289854	470.834048712580	1050.321967791158	1434.014203681257	657.896749240651	983.268548008787	1493.414916843120	488.860099280245	1073.139737790528	939.820669956679	611.102994809379	1027.023374936717	962.332599024095	339.592114876629	1078.154201493232	729.806518719793	584.261514974707	983.745113180924	631.391005037730	654.014444134223	1042.881051701971	569.752314434181	571.161907186085	1029.050837485393	485.109529809985	579.462696429596	1104.241350008720	775.821576203614	357.390387133986	1048.384206118438	644.396777068355	288.457442164454	1156.991348984222	586.321811237035	339.173535223891	1180.848934761379	518.311305218201	336.363843837224	1158.241666366052	444.511428965212	328.622383296872	1077.950120263904	321.944949014633	280.551078327445	1157.416569083910	214.733354197618	331.215350051702	992.724516871512	397.713298831289	587.643429515528	912.368067866264	301.289374660693	651.727655672344	943.873387329344	203.151876356734	586.711607525713	798.559368645111	42.923951221348	557.168810551231	970.854652566720	96.401757340105	591.662574208616	882.661154742308	36.582547467568	631.212815736515	1091.023896171401	42.616728301906	616.248317966063	1061.239294777123	41.305851764071	371.125120071802	1132.553517978427	42.835609980807	289.032795513421	1207.697674829373	116.877336555216	309.160728239621	1338.728718212068	80.819286440351	278.044424959148	832.624254359038	1109.640643408223	252.766767040032	797.931138773263	850.216245390997	267.540291032039	1194.361265935231	1130.352219600601	778.709286332606	1422.755104541739	1220.106287964797	722.731037717443	
72	44.448214285714	834.156570940371	1002.333860637180	521.443951066931	976.349029410463	1435.122926759226	327.502916836176	1105.245573780454	1365.741636691284	468.246797255686	1050.212760971165	1433.248621860110	655.297395954470	983.162896363620	1492.569102258398	486.287301162571	1073.473050251127	939.150089889317	609.119014687076	1027.506006813338	961.100908022731	337.499695634088	1077.618838875771	728.760946951861	582.728018145014	982.541722345607	630.867010337209	652.548533722712	1041.273519621927	568.687565197106	569.794167108100	1026.852316065429	483.948705208428	578.006691950277	1105.295812057590	774.583453480558	356.090720012043	1048.152195652453	642.513311366681	289.066514233505	1157.043149746019	584.639532389473	339.220119695273	1179.756582897532	515.732226798765	337.470666736731	1156.144699204623	441.463254128361	330.065038147789	1073.749144817690	320.150524160406	282.403506828756	1150.858970070523	211.761083601405	333.975391996122	989.945923638337	396.893236239959	586.505619963151	909.087376054605	301.185934909792	651.092633390871	939.508402643837	202.707208531018	586.191774693637	793.255454018424	42.942479970243	557.246427928910	965.525302484015	96.299552043615	591.616541332572	877.335912532365	36.544511435501	631.274640481919	1085.707139934347	42.373454386475	616.332305207721	1050.864629181350	40.999194046073	373.913930721482	1122.475725051197	41.165314010318	292.011108323477	1199.276070978409	113.047284775846	312.771763666656	1329.648738368957	73.947555506940	282.017774653623	833.363341641483	1108.282299293818	249.414866870974	802.005871337739	848.365360446518	262.884737788752	1195.642162131428	1130.466765933036	776.171070074080	1422.949463095087	1222.214059392929	719.597146450407	
73	44.461428571429	834.504546770767	1001.427744402321	518.883141027893	976.155508472541	1434.147303670218	324.782927814264	1105.126375839513	1365.007992022209	465.573985608103	1049.895169698854	1432.531424204580	652.567460736022	983.022820564115	1491.736542093358	483.509458184349	1073.921690516995	938.478592729426	607.069601685982	1028.288185905023	959.858581473727	335.345232444781	1077.322945046695	727.710052136751	581.219837002324	981.482779253702	630.332171372312	650.963021580327	1039.914731319155	567.586036372057	568.405625222193	1024.847030899975	482.717919298714	576.489706703823	1106.396276420887	772.963180439335	354.990125940430	1047.950061961154	640.663592367082	289.437413066910	1156.766423500926	582.677401390060	339.550853279740	1178.230789978240	512.906111464379	338.671989669294	1153.686088722522	438.319031958966	331.356222628935	1069.376964661419	318.212492360536	283.890819115547	1144.146278156590	208.718865274134	336.426411044153	987.301471096205	396.044581063298	585.306721265021	905.861565156100	301.128577138187	650.378753257720	935.185050734161	202.271800317135	585.665573365893	787.957000973761	43.006777225111	557.347100010371	960.206978131431	96.217624404161	591.583444152307	872.023073892849	36.514863056057	631.340514928821	1080.390327828374	42.130566144461	616.422060431962	1040.443026326385	40.566978417765	376.177563492798	1112.376335716507	39.573886665966	294.469487293706	1190.731659126411	109.288921022048	316.051853368587	1320.513601949606	67.339671433667	285.640887111526	834.683583723506	1106.684284739027	245.607053581741	807.335960268943	846.228852303007	257.569021749035	1196.375624169777	1130.349722005101	773.575246153005	1423.061794101865	1223.161566517638	716.642494396370	
74	44.474642857143	834.934108484427	1000.528190547615	516.075580033219	976.105787793529	1433.185153889837	321.852710934066	1105.039264674872	1364.375285457795	462.830085309368	1049.405158116069	1431.924854613502	649.714684825751	982.870143770261	1490.968360822157	480.535453931271	1074.455530076134	937.832119134124	604.935010964691	1029.299831385963	958.686251395359	333.119882517112	1077.247476280484	726.690513302364	579.677756460353	980.598040306844	629.806320221057	649.236970963570	1038.820125752820	566.480869644711	566.954372050287	1023.081368001865	481.435288563195	574.896984763586	1107.454617872063	771.074257368725	354.068588993754	1047.782352647884	638.958234324131	289.482443538735	1156.162747746977	580.580761449281	340.093242197552	1176.335721890483	510.034827864314	339.877440872877	1151.003536644500	435.273617191625	332.417198836686	1065.107638868400	316.252746117974	284.909070530474	1137.631054019810	205.807359732470	338.475920314311	984.818923462652	395.190858485060	584.032671125894	902.714644069693	301.149606589175	649.576773588481	930.926923029987	201.871803507758	585.126774147383	782.669100290741	43.160188048180	557.474992711951	954.916584798674	96.167206088312	591.565405430572	866.731068476191	36.511818876776	631.409349896695	1075.082914399660	41.876893801519	616.516913235175	1030.516078287393	40.072583046045	377.884892050199	1102.763815366009	38.178741140745	296.354309268472	1182.475764283759	105.858037409570	318.872915720883	1311.763691936936	61.427286390843	288.749008855813	836.670448578845	1104.876435559675	241.384982140891	813.859985249050	843.885637334313	251.662543268667	1196.515625813101	1130.005098853765	770.904208357599	1423.073515242307	1222.917738215970	713.853046174759	
75	44.487857142857	835.421093379758	999.705402909926	513.071968085838	976.213544319401	1432.291375604211	318.737934671701	1104.998077443692	1363.879536060377	460.031066468697	1048.789964142275	1431.490466300946	646.749766005353	982.723613312582	1490.316526254190	477.384026074682	1075.035740989425	937.243945811248	602.694464941731	1030.460037241855	957.667785924966	330.808209668271	1077.353142056346	725.746303832843	578.032947326408	979.911996815305	629.314625643099	647.354519259852	1038.001072615059	565.413468496680	565.400630533192	1021.608965289347	480.122570617646	573.228027587593	1108.410203651167	769.082169843825	353.264903778089	1047.675281432054	637.506933145544	289.131027091855	1155.284834110819	578.518462827437	340.726878980487	1174.176652066000	507.322298258817	340.977056902961	1148.246258496745	432.500021624332	333.182763262895	1061.163226653920	314.401986478314	285.383764377258	1131.568699719009	203.197657834743	340.063363053076	982.531601303172	394.359228138070	582.679564647060	899.673167221903	301.284841412208	648.683088633613	926.761272881916	201.538806043743	584.572913546477	777.397898154717	43.456163581115	557.631420752205	949.675621944181	96.160249702000	591.564242939629	861.468984273973	36.559218264759	631.479070396445	1069.795766496540	41.601578317778	616.614973527202	1021.450514036503	39.582103851168	379.053827836165	1093.975271490973	37.056457459825	297.665069590704	1174.786690542472	102.946659470169	321.144648253973	1303.690817727763	56.511195538182	291.223970870052	839.407465275634	1102.899416458725	236.787349477095	821.528842710730	841.421161711920	245.233147552173	1196.017552450734	1129.445294941524	768.144549829225	1422.951722235489	1221.451306279106	711.211302011245	
76	44.501071428571	835.945501262029	999.024000376035	509.921925217829	976.477074238960	1431.519755179417	315.474493502095	1105.010021212617	1363.550719113933	457.193670617818	1048.100775266644	1431.280115585092	643.686691417776	982.595690627286	1489.827152428009	474.082437105802	1075.619764178324	936.751692035222	600.330378382571	1031.688899176835	956.877916073266	328.390963523560	1077.587427982996	724.924586687593	576.221375026534	979.441594838398	628.885384741706	645.309213648532	1037.468619638842	564.429397950533	563.716403036138	1020.490644559276	478.802500155734	571.503256490627	1109.233614755727	767.174348835431	352.482284007939	1047.658559182508	636.397887455555	288.339558024222	1154.210919383039	576.644376172475	341.297591840209	1171.865855158205	504.933910998047	341.856077826420	1145.538559245953	430.121767230892	333.610595599512	1057.676104374087	312.771884558557	285.285355572082	1126.090924443577	201.007365191010	341.169680526561	980.479068424526	393.577799633961	581.258079930910	896.765193725146	301.571324542366	647.701648334082	922.718165984159	201.307725588021	584.007832225245	772.150794126295	43.955721202994	557.814217066050	944.509450739041	96.207880090946	591.581504700790	856.245947144692	36.685941417383	631.546869543777	1064.539981394842	41.296352930036	616.712811572101	1013.417956538505	39.150117322449	379.742975307843	1086.162628506459	36.235851123492	298.450743186065	1167.796490754915	100.660999072464	322.831065826999	1296.426772042814	52.734604031420	293.019316680850	842.965158762239	1100.802710586549	231.849383040984	830.304952878492	838.922355575382	238.348191979053	1194.842330594376	1128.689275580048	765.289174862525	1422.650285717234	1218.735387352576	708.697163462753	
